<svg width="198" height="204" fill="none" xmlns="http://www.w3.org/2000/svg"><path d="M92.689 3.21l-2.407-1.806-29.286 6.419-26.678 14.643-19.858 20.86L1.02 69.605l11.233 7.823 4.614 11.834 5.015 3.811 5.616-5.014h8.625l7.02-12.437 11.434-9.427 7.623 4.011h8.424l.803-14.642h12.235l5.015-3.812-2.407-1.805 4.814-9.628 6.419-.602 12.035-3.81-4.413-12.838 9.628-10.832 14.042 6.82 6.619-8.024 4.613 7.422 4.614 1.404-.401-6.419-6.62-3.41-7.221-2.808-7.02-2.206-12.036 2.808-7.622 10.631-10.43-4.413-.602-10.832zm62.784 38.11l8.023-14.441 13.64 14.442 10.431 16.047 6.82 18.253 2.607 19.658-2.607 3.009-8.225-5.216-1.604 4.213 4.613 7.823-1.604 8.424 8.625 5.617-3.21 13.238-3.811 3.611-6.017-4.212-2.006 2.607-.602 9.829-8.826-4.212-8.224 3.41-4.413-3.41.803-6.82h-2.207l-6.218 4.613-4.012-3.209 8.826-8.024 2.808 1.605.803 2.608 2.005 1.003 2.809-1.806-2.006-1.805 2.006-7.622h2.607l3.41-2.407 1.003-3.611-2.808-2.206-4.212 4.613-2.006-4.613h2.006l2.607-3.009-2.607-9.628h-1.204V86.453l-4.413-15.445-3.61-2.608-1.003-12.837-2.207-8.224-9.026-4.814 7.02-4.815 5.216 3.61zM79.851 200.186l3.811 2.407-22.867-5.616-20.259-10.431-17.852-14.643-12.637-17.05 5.416-.602 5.616 4.012 4.814-.802 2.809.802 4.212 7.221h14.442l10.23 6.419 3.21-1.003 2.407-3.209-.602-3.41 4.814-10.832 15.044-2.808 6.82 4.212v2.207l2.407 2.006 1.003-2.006 3.21 1.203 1.604 12.637 5.215-2.407v5.215l-3.81 6.62v3.61l-5.216 10.431-5.015-2.808-8.826 8.625z" fill="#FFA800"/><path d="M92.689 3.21l-2.407-1.806-29.286 6.419-26.678 14.643-19.858 20.86L1.02 69.605l11.233 7.823 4.614 11.834 5.015 3.811 5.616-5.014h8.625l7.02-12.437 11.434-9.427 7.623 4.011h8.424l.803-14.642h12.235l5.015-3.812-2.407-1.805 4.814-9.628 6.419-.602 12.035-3.81-4.413-12.838 9.628-10.832 14.042 6.82 6.619-8.024 4.613 7.422 4.614 1.404-.401-6.419-6.62-3.41-7.221-2.808-7.02-2.206-12.036 2.808-7.622 10.631-10.43-4.413-.602-10.832zm62.784 38.11l8.023-14.441 13.64 14.442 10.431 16.047 6.82 18.253 2.607 19.658-2.607 3.009-8.225-5.216-1.604 4.213 4.613 7.823-1.604 8.424 8.625 5.617-3.21 13.238-3.811 3.611-6.017-4.212-2.006 2.607-.602 9.829-8.826-4.212-8.224 3.41-4.413-3.41.803-6.82h-2.207l-6.218 4.613-4.012-3.209 8.826-8.024 2.808 1.605.803 2.608 2.005 1.003 2.809-1.806-2.006-1.805 2.006-7.622h2.607l3.41-2.407 1.003-3.611-2.808-2.206-4.212 4.613-2.006-4.613h2.006l2.607-3.009-2.607-9.628h-1.204V86.453l-4.413-15.445-3.61-2.608-1.003-12.837-2.207-8.224-9.026-4.814 7.02-4.815 5.216 3.61zM79.851 200.186l3.811 2.407-22.867-5.616-20.259-10.431-17.852-14.643-12.637-17.05 5.416-.602 5.616 4.012 4.814-.802 2.809.802 4.212 7.221h14.442l10.23 6.419 3.21-1.003 2.407-3.209-.602-3.41 4.814-10.832 15.044-2.808 6.82 4.212v2.207l2.407 2.006 1.003-2.006 3.21 1.203 1.604 12.637 5.215-2.407v5.215l-3.81 6.62v3.61l-5.216 10.431-5.015-2.808-8.826 8.625z" stroke="#fff"/></svg>