<svg width="39" height="35" fill="none" xmlns="http://www.w3.org/2000/svg"><circle cx="19.25" cy="17.507" r="4.358" fill="#fff"/><path d="M3.705 12.712l3.123-2.688 4.286 4.214-.24.667a6.998 6.998 0 00-.193 4.113l.126.488c.204.794.514 1.557.924 2.267l.052.092a8.446 8.446 0 004.25 3.654l.144.057a8.41 8.41 0 005.368.251l.901-.257 2.76 2.905-1.74.502a15.108 15.108 0 01-7.824.14l-.86-.215a15 15 0 01-3.268-1.236l-1.306-.677a14.996 14.996 0 01-2.011-1.254L5.81 23.972l-3.704-3.487-1.644-2.023a1.75 1.75 0 01-.34-.679l-.017-.07a1.5 1.5 0 01.266-1.278l.572-.744 2.76-2.979zm31.09 9.444l-3.123 2.687-1.308.872-.736.43c-.67.39-1.37.73-2.093 1.012l-.585.229-2.76-2.76 1.144-.982a6.762 6.762 0 001.47-1.779l.582-1.235.24-.667a6.998 6.998 0 00.193-4.113l-.125-.488a9.068 9.068 0 00-.925-2.268l-.052-.091a8.445 8.445 0 00-4.25-3.654l-.144-.057a8.41 8.41 0 00-5.368-.251l-.901.257a8.951 8.951 0 00-2.623 1.62l-.138.123-1.234 1.453-3.633-3.56 1.962-1.089 1.38-.799 1.525-.654 1.74-.502a15.107 15.107 0 017.825-.14l.86.216c1.134.283 2.23.698 3.267 1.236l1.307.677c.702.364 1.375.784 2.011 1.254l2.386 1.763 3.704 3.487 1.644 2.023c.161.199.277.43.34.679l.017.07a1.499 1.499 0 01-.266 1.278l-.572.744-2.76 2.979z" fill="#fff"/><path d="M4.14 0L1.817 2.47l32.47 32.325 2.325-2.324L4.141 0z" fill="#fff"/></svg>