<svg width="198" height="204" viewBox="0 0 198 204" fill="none" xmlns="http://www.w3.org/2000/svg">
<path d="M92.6889 3.2094L90.2818 1.40411L60.9961 7.8229L34.318 22.4658L14.4599 43.3268L1.02057 69.6037L12.2534 77.4266L16.8669 89.2612L21.8816 93.0724L27.4981 88.0577H36.1233L43.1439 75.6213L54.5773 66.1937L62.1996 70.2055H70.6243L71.4266 55.5626H83.6624L88.6771 51.7515L86.2701 49.9462L91.0842 40.318L97.503 39.7162L109.538 35.9051L105.125 23.0675L114.753 12.2358L128.795 19.0558L135.414 11.0323L140.027 18.454L144.641 19.8581L144.24 13.4393L137.62 10.0294L130.399 7.22114L123.379 5.01468L111.343 7.8229L103.721 18.454L93.2906 14.0411L92.6889 3.2094Z" fill="#FFA800"/>
<path d="M155.473 41.3209L163.496 26.8787L177.136 41.3209L187.567 57.3679L194.387 75.6213L196.994 95.2789L194.387 98.2877L186.162 93.0724L184.558 97.2847L189.171 105.108L187.567 113.532L196.192 119.149L192.982 132.387L189.171 135.998L183.154 131.786L181.148 134.393L180.546 144.222L171.72 140.01L163.496 143.42L159.083 140.01L159.886 133.19H157.679L151.461 137.803L147.449 134.594L156.275 126.57L159.083 128.175L159.886 130.783L161.891 131.786L164.7 129.98L162.694 128.175L164.7 120.553H167.307L170.717 118.146L171.72 114.535L168.912 112.329L164.7 116.942L162.694 112.329H164.7L167.307 109.32L164.7 99.6918H163.496V86.453L159.083 71.0078L155.473 68.4002L154.47 55.5626L152.263 47.3386L143.237 42.5245L150.257 37.7104L155.473 41.3209Z" fill="#FFA800"/>
<path d="M79.8513 200.186L83.6624 202.593L60.7955 196.977L40.5362 186.546L22.684 171.903L10.047 154.853L15.4628 154.251L21.0793 158.263L25.8934 157.461L28.7016 158.263L32.9139 165.484H47.3562L57.5861 171.903L60.7955 170.9L63.2026 167.691L62.6008 164.281L67.4149 153.449L82.4589 150.641L89.2789 154.853V157.06L91.6859 159.066L92.6889 157.06L95.8983 158.263L97.503 170.9L102.718 168.493V173.708L98.9071 180.328V183.938L93.6918 194.369L88.6771 191.561L79.8513 200.186Z" fill="#FFA800"/>
<path d="M92.6889 3.2094L90.2818 1.40411L60.9961 7.8229L34.318 22.4658L14.4599 43.3268L1.02057 69.6037L12.2534 77.4266L16.8669 89.2612L21.8816 93.0724L27.4981 88.0577H36.1233L43.1439 75.6213L54.5773 66.1937L62.1996 70.2055H70.6243L71.4266 55.5626H83.6624L88.6771 51.7515L86.2701 49.9462L91.0842 40.318L97.503 39.7162L109.538 35.9051L105.125 23.0675L114.753 12.2358L128.795 19.0558L135.414 11.0323L140.027 18.454L144.641 19.8581L144.24 13.4393L137.62 10.0294L130.399 7.22114L123.379 5.01468L111.343 7.8229L103.721 18.454L93.2906 14.0411L92.6889 3.2094Z" stroke="white"/>
<path d="M155.473 41.3209L163.496 26.8787L177.136 41.3209L187.567 57.3679L194.387 75.6213L196.994 95.2789L194.387 98.2877L186.162 93.0724L184.558 97.2847L189.171 105.108L187.567 113.532L196.192 119.149L192.982 132.387L189.171 135.998L183.154 131.786L181.148 134.393L180.546 144.222L171.72 140.01L163.496 143.42L159.083 140.01L159.886 133.19H157.679L151.461 137.803L147.449 134.594L156.275 126.57L159.083 128.175L159.886 130.783L161.891 131.786L164.7 129.98L162.694 128.175L164.7 120.553H167.307L170.717 118.146L171.72 114.535L168.912 112.329L164.7 116.942L162.694 112.329H164.7L167.307 109.32L164.7 99.6918H163.496V86.453L159.083 71.0078L155.473 68.4002L154.47 55.5626L152.263 47.3386L143.237 42.5245L150.257 37.7104L155.473 41.3209Z" stroke="white"/>
<path d="M79.8513 200.186L83.6624 202.593L60.7955 196.977L40.5362 186.546L22.684 171.903L10.047 154.853L15.4628 154.251L21.0793 158.263L25.8934 157.461L28.7016 158.263L32.9139 165.484H47.3562L57.5861 171.903L60.7955 170.9L63.2026 167.691L62.6008 164.281L67.4149 153.449L82.4589 150.641L89.2789 154.853V157.06L91.6859 159.066L92.6889 157.06L95.8983 158.263L97.503 170.9L102.718 168.493V173.708L98.9071 180.328V183.938L93.6918 194.369L88.6771 191.561L79.8513 200.186Z" stroke="white"/>
</svg>
