<svg width="25" height="17" viewBox="0 0 25 17" fill="none" xmlns="http://www.w3.org/2000/svg">
<ellipse cx="12.5001" cy="8.46272" rx="2.83019" ry="2.87425" fill="white"/>
<path d="M2.40566 5.30108L4.43397 3.52863L7.21699 6.30706L7.06159 6.74544C6.88348 7.2479 6.79246 7.77709 6.79246 8.31019C6.79246 8.69782 6.84059 9.08396 6.93573 9.45973L7.01865 9.78721C7.15028 10.3071 7.35102 10.8069 7.6155 11.2735L7.65612 11.3451C7.95873 11.8789 8.34836 12.3583 8.80894 12.7637C9.28495 13.1827 9.82971 13.5163 10.4192 13.75L10.5071 13.7848C11.1382 14.0349 11.8109 14.1633 12.4898 14.1633C12.9972 14.1633 13.5021 14.0916 13.9894 13.9502L14.5755 13.7801L16.3679 15.6963L15.2457 16.025C14.3632 16.2836 13.4482 16.4148 12.5285 16.4148C11.7265 16.4148 10.9275 16.315 10.1501 16.1176L9.86857 16.0461C8.95311 15.8137 8.06833 15.4739 7.23262 15.0338L6.96785 14.8944C6.28597 14.5353 5.63377 14.1225 5.01744 13.6599L3.77359 12.7262L1.36793 10.4268L0.302136 9.09466C0.196319 8.96239 0.120538 8.8087 0.0800499 8.64422L0.068533 8.59744C0.0237468 8.4155 0.0309814 8.22465 0.0894122 8.04663C0.123905 7.94154 0.175595 7.8429 0.242376 7.75473L0.613208 7.26515L2.40566 5.30108Z" fill="white"/>
<path d="M22.5943 11.5286L20.566 13.301L19.717 13.8759L19.5893 13.9515C18.9207 14.3476 18.2222 14.6907 17.5 14.9777L15.7075 13.1573L16.4479 12.5129C16.832 12.1785 17.1559 11.7808 17.4057 11.337L17.783 10.5226L17.9384 10.0842C18.1165 9.58177 18.2075 9.05259 18.2075 8.51949C18.2075 8.13185 18.1594 7.74572 18.0643 7.36994L17.9813 7.04246C17.8497 6.5226 17.649 6.02272 17.3845 5.55621L17.3439 5.48457C17.0413 4.95081 16.6516 4.47134 16.1911 4.06596C15.7151 3.647 15.1703 3.31335 14.5808 3.07971L14.4929 3.0449C13.8618 2.79478 13.1891 2.66633 12.5102 2.66633C12.0028 2.66633 11.4979 2.7381 11.0106 2.8795L10.4245 3.04957C9.80038 3.30311 9.22532 3.66371 8.72527 4.11512L8.63206 4.19926L7.83017 5.15735L5.47168 2.81004L6.74526 2.09148L7.64149 1.56454L8.63206 1.1334L9.75425 0.804651C10.6368 0.5461 11.5518 0.414839 12.4715 0.414839C13.2735 0.414839 14.0725 0.514678 14.8499 0.712054L15.1314 0.783539C16.0469 1.01597 16.9317 1.35575 17.7674 1.79583L18.0321 1.93525C18.714 2.29432 19.3662 2.70714 19.9826 3.16978L21.2264 4.10346L23.6321 6.40285L24.6979 7.73501C24.8037 7.86728 24.8795 8.02098 24.92 8.18545L24.9315 8.23224C24.9763 8.41417 24.969 8.60503 24.9106 8.78305C24.8761 8.88814 24.8244 8.98677 24.7576 9.07494L24.3868 9.56453L22.5943 11.5286Z" fill="white"/>
</svg>
