<svg width="25" height="24" viewBox="0 0 25 24" fill="none" xmlns="http://www.w3.org/2000/svg">
<ellipse cx="12.5001" cy="12.0479" rx="2.83019" ry="2.87425" fill="white"/>
<path d="M2.40566 8.88624L4.43397 7.11378L7.21699 9.89222L7.06159 10.3306C6.88348 10.8331 6.79246 11.3622 6.79246 11.8953C6.79246 12.283 6.84059 12.6691 6.93573 13.0449L7.01865 13.3724C7.15028 13.8922 7.35102 14.3921 7.6155 14.8586L7.65612 14.9303C7.95873 15.464 8.34836 15.9435 8.80894 16.3489C9.28495 16.7678 9.82971 17.1015 10.4192 17.3351L10.5071 17.3699C11.1382 17.6201 11.8109 17.7485 12.4898 17.7485C12.9972 17.7485 13.5021 17.6767 13.9894 17.5353L14.5755 17.3653L16.3679 19.2814L15.2457 19.6102C14.3632 19.8687 13.4482 20 12.5285 20C11.7265 20 10.9275 19.9002 10.1501 19.7028L9.86857 19.6313C8.95311 19.3989 8.06833 19.0591 7.23262 18.619L6.96785 18.4796C6.28597 18.1205 5.63377 17.7077 5.01744 17.2451L3.77359 16.3114L1.36793 14.012L0.302136 12.6798C0.196319 12.5476 0.120538 12.3939 0.0800499 12.2294L0.068533 12.1826C0.0237468 12.0007 0.0309814 11.8098 0.0894122 11.6318C0.123905 11.5267 0.175595 11.4281 0.242376 11.3399L0.613208 10.8503L2.40566 8.88624Z" fill="white"/>
<path d="M22.5943 15.1137L20.566 16.8862L19.717 17.461L19.5893 17.5367C18.9207 17.9327 18.2222 18.2759 17.5 18.5628L15.7075 16.7425L16.4479 16.098C16.832 15.7637 17.1559 15.3659 17.4057 14.9221L17.783 14.1078L17.9384 13.6694C18.1165 13.1669 18.2075 12.6377 18.2075 12.1046C18.2075 11.717 18.1594 11.3309 18.0643 10.9551L17.9813 10.6276C17.8497 10.1077 17.649 9.60787 17.3845 9.14135L17.3439 9.06971C17.0413 8.53595 16.6516 8.05649 16.1911 7.6511C15.7151 7.23214 15.1703 6.89849 14.5808 6.66486L14.4929 6.63004C13.8618 6.37992 13.1891 6.25148 12.5102 6.25148C12.0028 6.25148 11.4979 6.32324 11.0106 6.46465L10.4245 6.63471C9.80038 6.88825 9.22532 7.24885 8.72527 7.70026L8.63206 7.78441L7.83017 8.74249L5.47168 6.39519L6.74526 5.67663L7.64149 5.14968L8.63206 4.71854L9.75425 4.3898C10.6368 4.13124 11.5518 3.99998 12.4715 3.99998C13.2735 3.99998 14.0725 4.09982 14.8499 4.2972L15.1314 4.36868C16.0469 4.60111 16.9317 4.9409 17.7674 5.38097L18.0321 5.52039C18.714 5.87947 19.3662 6.29228 19.9826 6.75492L21.2264 7.6886L23.6321 9.988L24.6979 11.3202C24.8037 11.4524 24.8795 11.6061 24.92 11.7706L24.9315 11.8174C24.9763 11.9993 24.969 12.1902 24.9106 12.3682C24.8761 12.4733 24.8244 12.5719 24.7576 12.6601L24.3868 13.1497L22.5943 15.1137Z" fill="white"/>
<path d="M2.68865 0.502991L1.17922 2.13173L22.2641 23.4491L23.7736 21.9161L2.68865 0.502991Z" fill="white"/>
</svg>
