<svg width="39" height="35" viewBox="0 0 39 35" fill="none" xmlns="http://www.w3.org/2000/svg">
<circle cx="19.25" cy="17.5066" r="4.35849" fill="#F0FFB6"/>
<path d="M3.70472 12.7123L6.8283 10.0245L11.1142 14.2377L10.874 14.9047C10.6003 15.665 10.4604 16.467 10.4604 17.275C10.4604 17.8629 10.5345 18.4485 10.6809 19.0178L10.8065 19.5063C11.0106 20.3003 11.3215 21.063 11.7306 21.7735L11.7833 21.865C12.254 22.6826 12.8584 23.4155 13.5713 24.0334C14.3008 24.6656 15.1332 25.168 16.0324 25.519L16.1775 25.5756C17.1519 25.9558 18.1886 26.151 19.2345 26.151C20.0159 26.151 20.7934 26.0421 21.5447 25.8274L22.4462 25.5698L25.2066 28.4755L23.4664 28.9775C22.115 29.3673 20.7003 29.5651 19.2938 29.5651C18.0674 29.5651 16.8323 29.4147 15.6425 29.1172L14.7813 28.9019C13.6479 28.6186 12.5516 28.2038 11.5145 27.6661L10.2081 26.9887C9.50567 26.6245 8.83321 26.2053 8.19695 25.735L5.81132 23.9717L2.1066 20.4849L0.463165 18.4622C0.301641 18.2634 0.185726 18.0316 0.123601 17.7831L0.105867 17.7122C0.0367248 17.4356 0.0478834 17.145 0.138033 16.8746C0.190921 16.7159 0.269989 16.5672 0.371961 16.4347L0.94434 15.6906L3.70472 12.7123Z" fill="#F0FFB6"/>
<path d="M34.7953 22.1557L31.6717 24.8434L30.3642 25.7151L29.6275 26.1448C28.9573 26.5357 28.2579 26.8741 27.5354 27.1568L26.95 27.3858L24.1896 24.6255L25.3343 23.6444C25.9228 23.1399 26.4202 22.5381 26.8047 21.8651L27.3858 20.6302L27.626 19.9632C27.8997 19.2029 28.0396 18.401 28.0396 17.5929C28.0396 17.005 27.9655 16.4195 27.8191 15.8501L27.6935 15.3616C27.4894 14.5676 27.1785 13.8049 26.7694 13.0944L26.7167 13.003C26.246 12.1854 25.6416 11.4524 24.9287 10.8346C24.1992 10.2024 23.3668 9.69988 22.4675 9.34896L22.3225 9.29234C21.3481 8.91211 20.3114 8.71698 19.2655 8.71698C18.4841 8.71698 17.7066 8.82588 16.9553 9.04052L16.0538 9.29811C15.0925 9.68262 14.2052 10.231 13.4314 10.9188L13.2934 11.0415L12.0585 12.4943L8.42641 8.9349L10.3877 7.84528L11.7679 7.04622L13.2934 6.39245L15.0336 5.89047C16.385 5.50065 17.7997 5.30283 19.2062 5.30283C20.4326 5.30283 21.6677 5.45324 22.8575 5.75069L23.7187 5.966C24.852 6.24933 25.9484 6.66408 26.9855 7.20182L28.2919 7.87926C28.9943 8.24346 29.6668 8.66266 30.3031 9.13293L32.6887 10.8962L36.3934 14.383L38.0368 16.4057C38.1984 16.6045 38.3143 16.8363 38.3764 17.0848L38.3941 17.1558C38.4633 17.4323 38.4521 17.7229 38.362 17.9933C38.3091 18.152 38.23 18.3007 38.128 18.4333L37.5557 19.1774L34.7953 22.1557Z" fill="#F0FFB6"/>
<path d="M4.14057 0L1.81604 2.46981L34.2868 34.7953L36.6113 32.4708L4.14057 0Z" fill="#F0FFB6"/>
</svg>
