<svg width="25" height="17" fill="none" xmlns="http://www.w3.org/2000/svg"><ellipse cx="12.5" cy="8.463" rx="2.83" ry="2.874" fill="#fff"/><path d="M2.406 5.301L4.434 3.53l2.783 2.778-.155.438a4.683 4.683 0 00-.126 2.715l.083.327a6 6 0 00.596 1.486l.041.072a5.51 5.51 0 002.763 2.405l.088.035a5.382 5.382 0 003.482.165l.586-.17 1.793 1.916-1.122.329a9.663 9.663 0 01-5.096.093l-.281-.072c-.916-.232-1.8-.572-2.636-1.012l-.265-.14a14.52 14.52 0 01-1.95-1.234l-1.244-.934-2.406-2.3L.302 9.096a1.168 1.168 0 01-.222-.45l-.011-.048a1 1 0 01.173-.842l.371-.49 1.793-1.964zm20.188 6.228L20.566 13.3l-.849.575-.128.075a14.88 14.88 0 01-2.089 1.027l-1.793-1.82.74-.645c.385-.335.709-.732.959-1.176l.377-.814.155-.439a4.683 4.683 0 00.126-2.714l-.083-.328a5.997 5.997 0 00-.597-1.486l-.04-.071A5.511 5.511 0 0014.58 3.08l-.088-.035a5.381 5.381 0 00-3.482-.165l-.586.17c-.625.253-1.2.614-1.7 1.065l-.093.084-.802.958L5.472 2.81l1.273-.719.896-.526.991-.432L9.754.805A9.665 9.665 0 0114.85.712l.281.072c.916.232 1.8.572 2.636 1.012l.265.14c.682.358 1.334.771 1.95 1.234l1.244.933 2.406 2.3 1.066 1.332c.106.132.181.286.222.45l.011.047a1 1 0 01-.173.843l-.371.49-1.793 1.964z" fill="#fff"/></svg>