<svg width="25" height="24" fill="none" xmlns="http://www.w3.org/2000/svg"><ellipse cx="12.5" cy="12.048" rx="2.83" ry="2.874" fill="#fff"/><path d="M2.406 8.886l2.028-1.772 2.783 2.778-.155.439a4.683 4.683 0 00-.126 2.714l.083.327a6 6 0 00.596 1.487l.041.071a5.511 5.511 0 002.763 2.405l.088.035a5.38 5.38 0 003.482.165l.586-.17 1.793 1.916-1.122.33a9.666 9.666 0 01-5.096.092l-.281-.072c-.916-.232-1.8-.572-2.636-1.012l-.265-.14a14.52 14.52 0 01-1.95-1.234l-1.244-.934-2.406-2.299L.302 12.68a1.167 1.167 0 01-.222-.45l-.011-.047a1 1 0 01.173-.843l.371-.49 1.793-1.964zm20.188 6.228l-2.028 1.772-.849.575-.128.076a14.88 14.88 0 01-2.089 1.026l-1.793-1.82.74-.645a4.44 4.44 0 00.959-1.176l.377-.814.155-.439a4.684 4.684 0 00.126-2.714l-.083-.327a5.997 5.997 0 00-.597-1.487l-.04-.071a5.511 5.511 0 00-2.763-2.405l-.088-.035a5.381 5.381 0 00-3.482-.165l-.586.17c-.625.253-1.2.614-1.7 1.065l-.093.084-.802.958-2.358-2.347 1.273-.718.896-.527.991-.431 1.122-.33a9.665 9.665 0 015.096-.092l.281.072c.916.232 1.8.572 2.636 1.012l.265.14c.682.358 1.334.771 1.95 1.234l1.244.934 2.406 2.299 1.066 1.332c.106.132.181.286.222.45l.011.047a1 1 0 01-.173.843l-.371.49-1.793 1.964z" fill="#fff"/><path d="M2.689.503l-1.51 1.629 21.085 21.317 1.51-1.533L2.689.503z" fill="#fff"/></svg>